<svg width="49" height="232" viewBox="0 0 49 232" fill="none" xmlns="http://www.w3.org/2000/svg">
<rect x="0.000366211" width="49" height="232" fill="black"/>
<path d="M29.8125 212.085L29.8125 217.722L33 218.706L33 223.101L15.9375 216.843L15.9375 212.976L33 206.671L33 211.089L29.8125 212.085ZM26.6367 216.738L26.6367 213.07L20.7187 214.909L26.6367 216.738ZM15.9375 187.445L27.1055 187.445C28.3711 187.445 29.4687 187.715 30.3984 188.254C31.3203 188.793 32.0234 189.566 32.5078 190.574C32.9922 191.582 33.2344 192.773 33.2344 194.148C33.2344 196.227 32.6953 197.863 31.6172 199.059C30.5391 200.254 29.0625 200.863 27.1875 200.887L15.9375 200.887L15.9375 196.75L27.2695 196.75C29.1367 196.703 30.0703 195.836 30.0703 194.148C30.0703 193.297 29.8359 192.652 29.3672 192.215C28.8984 191.777 28.1367 191.559 27.082 191.559L15.9375 191.559L15.9375 187.445ZM19.1133 166.673L19.1133 171.794L33 171.794L33 175.907L19.1133 175.907L19.1133 180.934L15.9375 180.934L15.9375 166.673L19.1133 166.673ZM24.8203 146.005C26.4844 146.005 27.957 146.314 29.2383 146.931C30.5195 147.548 31.5078 148.427 32.2031 149.568C32.8906 150.701 33.2344 151.994 33.2344 153.447C33.2344 154.9 32.9023 156.189 32.2383 157.314C31.5664 158.439 30.6094 159.318 29.3672 159.951C28.125 160.576 26.6992 160.904 25.0898 160.935L24.1289 160.935C22.457 160.935 20.9844 160.63 19.7109 160.021C18.4297 159.404 17.4414 158.525 16.7461 157.384C16.0508 156.236 15.7031 154.931 15.7031 153.47C15.7031 152.025 16.0469 150.736 16.7344 149.603C17.4219 148.47 18.4023 147.591 19.6758 146.966C20.9414 146.334 22.3945 146.013 24.0352 146.005L24.8203 146.005ZM24.1055 150.189C22.4102 150.189 21.125 150.474 20.25 151.045C19.3672 151.607 18.9258 152.416 18.9258 153.47C18.9258 155.533 20.4727 156.623 23.5664 156.74L24.8203 156.752C26.4922 156.752 27.7773 156.474 28.6758 155.92C29.5742 155.365 30.0234 154.541 30.0234 153.447C30.0234 152.408 29.582 151.607 28.6992 151.045C27.8164 150.482 26.5469 150.197 24.8906 150.189L24.1055 150.189ZM33 124.834L33 128.924L22.3828 134.971L33 134.971L33 139.084L15.9375 139.084L15.9375 134.971L26.5547 128.936L15.9375 128.936L15.9375 124.834L33 124.834ZM24.8203 102.984C26.4844 102.984 27.957 103.292 29.2383 103.909C30.5195 104.527 31.5078 105.405 32.2031 106.546C32.8906 107.679 33.2344 108.972 33.2344 110.425C33.2344 111.878 32.9023 113.167 32.2383 114.292C31.5664 115.417 30.6094 116.296 29.3672 116.929C28.125 117.554 26.6992 117.882 25.0898 117.913L24.1289 117.913C22.457 117.913 20.9844 117.609 19.7109 116.999C18.4297 116.382 17.4414 115.503 16.7461 114.363C16.0508 113.214 15.7031 111.909 15.7031 110.448C15.7031 109.003 16.0469 107.714 16.7344 106.581C17.4219 105.448 18.4023 104.57 19.6758 103.945C20.9414 103.312 22.3945 102.991 24.0352 102.984L24.8203 102.984ZM24.1055 107.167C22.4102 107.167 21.125 107.452 20.25 108.023C19.3672 108.585 18.9258 109.394 18.9258 110.448C18.9258 112.511 20.4727 113.601 23.5664 113.718L24.8203 113.73C26.4922 113.73 27.7773 113.452 28.6758 112.898C29.5742 112.343 30.0234 111.519 30.0234 110.425C30.0234 109.386 29.582 108.585 28.6992 108.023C27.8164 107.46 26.5469 107.175 24.8906 107.167L24.1055 107.167ZM15.9375 90.6602L27.8086 86.8516L15.9375 83.0547L15.9375 77.6406L33 77.6406L33 81.7656L29.0156 81.7656L20.8594 81.3672L33 85.4922L33 88.2109L20.8477 92.3477L29.0156 91.9492L33 91.9492L33 96.0625L15.9375 96.0625L15.9375 90.6602ZM24.8203 55.7664C26.4844 55.7664 27.957 56.075 29.2383 56.6922C30.5195 57.3094 31.5078 58.1883 32.2031 59.3289C32.8906 60.4617 33.2344 61.7547 33.2344 63.2078C33.2344 64.6609 32.9023 65.95 32.2383 67.075C31.5664 68.2 30.6094 69.0789 29.3672 69.7117C28.125 70.3367 26.6992 70.6648 25.0898 70.6961L24.1289 70.6961C22.457 70.6961 20.9844 70.3914 19.7109 69.782C18.4297 69.1648 17.4414 68.2859 16.7461 67.1453C16.0508 65.9969 15.7031 64.6922 15.7031 63.2312C15.7031 61.7859 16.0469 60.4969 16.7344 59.3641C17.4219 58.2312 18.4023 57.3523 19.6758 56.7273C20.9414 56.0945 22.3945 55.7742 24.0351 55.7664L24.8203 55.7664ZM24.1055 59.95C22.4101 59.95 21.125 60.2352 20.25 60.8055C19.3672 61.368 18.9258 62.1766 18.9258 63.2312C18.9258 65.2937 20.4726 66.3836 23.5664 66.5008L24.8203 66.5125C26.4922 66.5125 27.7773 66.2352 28.6758 65.6805C29.5742 65.1258 30.0234 64.3016 30.0234 63.2078C30.0234 62.1687 29.582 61.368 28.6992 60.8055C27.8164 60.243 26.5469 59.9578 24.8906 59.95L24.1055 59.95Z" fill="white"/>
<path d="M30.7313 18.7422L33.2504 22.2757L46 18.7422H30.7313ZM17.4838 46.2579L24.3812 39.5146L20.231 35.0592L17.4838 46.2579ZM29.6861 18.7422L26 22.0629L32.2005 22.2942L29.6861 18.7422ZM15.3578 18.7437L16.679 21.4571L23.9773 21.9103L15.3578 18.7437ZM19.2629 32.813L24.6541 22.7582L9 21.9088L19.2629 32.813ZM19.8903 33.4481L24.9825 38.918L30.5987 33.4142L32.3408 23.1591L25.4974 22.8076L19.8903 33.4481Z" fill="white"/>
</svg>
