<svg width="49" height="232" viewBox="0 0 49 232" fill="none" xmlns="http://www.w3.org/2000/svg">
<rect x="0.000366211" width="49" height="232" fill="black"/>
<path d="M27.2227 211.463C28.4102 211.517 29.4609 211.838 30.375 212.423C31.2812 213.009 31.9844 213.834 32.4844 214.896C32.9844 215.951 33.2344 217.158 33.2344 218.517C33.2344 220.759 32.5039 222.525 31.043 223.814C29.582 225.103 27.5195 225.748 24.8555 225.748L24.0117 225.748C22.3398 225.748 20.8789 225.459 19.6289 224.88C18.3711 224.295 17.4023 223.455 16.7227 222.361C16.0352 221.267 15.6914 220.002 15.6914 218.564C15.6914 216.494 16.2383 214.83 17.332 213.572C18.418 212.314 19.918 211.599 21.832 211.427L21.832 215.529C20.793 215.56 20.0469 215.822 19.5937 216.314C19.1406 216.806 18.9141 217.556 18.9141 218.564C18.9141 219.588 19.2969 220.338 20.0625 220.814C20.8281 221.291 22.0508 221.541 23.7305 221.564L24.9375 221.564C26.7578 221.564 28.0586 221.338 28.8398 220.884C29.6211 220.423 30.0117 219.634 30.0117 218.517C30.0117 217.572 29.7891 216.849 29.3437 216.349C28.8984 215.849 28.1914 215.584 27.2227 215.552L27.2227 211.463ZM29.8125 198.626L29.8125 204.262L33 205.247L33 209.641L15.9375 203.384L15.9375 199.516L33 193.212L33 197.63L29.8125 198.626ZM26.6367 203.278L26.6367 199.61L20.7187 201.45L26.6367 203.278ZM29.8359 186.645L29.8359 179.484L33 179.484L33 190.758L15.9375 190.758L15.9375 186.645L29.8359 186.645ZM27.2227 163.495C28.4102 163.55 29.4609 163.87 30.375 164.456C31.2812 165.042 31.9844 165.866 32.4844 166.929C32.9844 167.984 33.2344 169.191 33.2344 170.55C33.2344 172.792 32.5039 174.558 31.043 175.847C29.582 177.136 27.5195 177.78 24.8555 177.78L24.0117 177.78C22.3398 177.78 20.8789 177.491 19.6289 176.913C18.3711 176.327 17.4023 175.488 16.7227 174.394C16.0352 173.3 15.6914 172.034 15.6914 170.597C15.6914 168.527 16.2383 166.863 17.332 165.605C18.418 164.347 19.918 163.632 21.832 163.46L21.832 167.562C20.793 167.593 20.0469 167.855 19.5937 168.347C19.1406 168.839 18.9141 169.589 18.9141 170.597C18.9141 171.62 19.2969 172.37 20.0625 172.847C20.8281 173.323 22.0508 173.573 23.7305 173.597L24.9375 173.597C26.7578 173.597 28.0586 173.37 28.8398 172.917C29.6211 172.456 30.0117 171.667 30.0117 170.55C30.0117 169.605 29.7891 168.882 29.3437 168.382C28.8984 167.882 28.1914 167.616 27.2227 167.585L27.2227 163.495ZM15.9375 146.967L27.1055 146.967C28.3711 146.967 29.4687 147.237 30.3984 147.776C31.3203 148.315 32.0234 149.088 32.5078 150.096C32.9922 151.104 33.2344 152.295 33.2344 153.67C33.2344 155.748 32.6953 157.385 31.6172 158.58C30.5391 159.776 29.0625 160.385 27.1875 160.409L15.9375 160.409L15.9375 156.272L27.2695 156.272C29.1367 156.225 30.0703 155.358 30.0703 153.67C30.0703 152.819 29.8359 152.174 29.3672 151.737C28.8984 151.299 28.1367 151.08 27.082 151.08L15.9375 151.08L15.9375 146.967ZM29.8359 139.076L29.8359 131.916L33 131.916L33 143.189L15.9375 143.189L15.9375 139.076L29.8359 139.076ZM29.8125 119.055L29.8125 124.692L33 125.677L33 130.071L15.9375 123.813L15.9375 119.946L33 113.641L33 118.059L29.8125 119.055ZM26.6367 123.708L26.6367 120.04L20.7187 121.88L26.6367 123.708ZM19.1133 99.1992L19.1133 104.32L33 104.32L33 108.434L19.1133 108.434L19.1133 113.461L15.9375 113.461L15.9375 99.1992L19.1133 99.1992ZM24.8203 82.132C26.4844 82.132 27.957 82.4406 29.2383 83.0578C30.5195 83.675 31.5078 84.5539 32.2031 85.6945C32.8906 86.8273 33.2344 88.1203 33.2344 89.5734C33.2344 91.0265 32.9023 92.3156 32.2383 93.4406C31.5664 94.5656 30.6094 95.4445 29.3672 96.0773C28.125 96.7023 26.6992 97.0305 25.0898 97.0617L24.1289 97.0617C22.457 97.0617 20.9844 96.757 19.7109 96.1476C18.4297 95.5305 17.4414 94.6515 16.7461 93.5109C16.0508 92.3625 15.7031 91.0578 15.7031 89.5969C15.7031 88.1515 16.0469 86.8625 16.7344 85.7297C17.4219 84.5969 18.4023 83.718 19.6758 83.093C20.9414 82.4601 22.3945 82.1398 24.0352 82.132L24.8203 82.132ZM24.1055 86.3156C22.4102 86.3156 21.125 86.6008 20.25 87.1711C19.3672 87.7336 18.9258 88.5422 18.9258 89.5969C18.9258 91.6594 20.4727 92.7492 23.5664 92.8664L24.8203 92.8781C26.4922 92.8781 27.7773 92.6008 28.6758 92.0461C29.5742 91.4914 30.0234 90.6672 30.0234 89.5734C30.0234 88.5344 29.582 87.7336 28.6992 87.1711C27.8164 86.6086 26.5469 86.3234 24.8906 86.3156L24.1055 86.3156ZM26.9766 72.4711L26.9766 74.6977L33 74.6977L33 78.8109L15.9375 78.8109L15.9375 72.0961C15.9375 70.0727 16.3867 68.4906 17.2851 67.35C18.1836 66.2094 19.4531 65.6391 21.0937 65.6391C22.2812 65.6391 23.2656 65.8813 24.0469 66.3656C24.8281 66.8422 25.4609 67.5922 25.9453 68.6156L32.8242 65.0531L33 65.0531L33 69.4594L26.9766 72.4711ZM23.8008 74.6977L23.8008 72.0961C23.8008 71.3148 23.5976 70.7289 23.1914 70.3383C22.7773 69.9398 22.2031 69.7406 21.4687 69.7406C20.7344 69.7406 20.1601 69.9398 19.7461 70.3383C19.3242 70.7367 19.1133 71.3227 19.1133 72.0961L19.1133 74.6977L23.8008 74.6977Z" fill="white"/>
<path d="M9.32 14H39.68C40.0301 14 40.3658 14.1644 40.6134 14.4569C40.8609 14.7495 41 15.1463 41 15.56V50.27C41 50.6837 40.8609 51.0805 40.6134 51.3731C40.3658 51.6656 40.0301 51.83 39.68 51.83H9.32C8.96991 51.83 8.63417 51.6656 8.38662 51.3731C8.13907 51.0805 8 50.6837 8 50.27V15.56C8 15.1463 8.13907 14.7495 8.38662 14.4569C8.63417 14.1644 8.96991 14 9.32 14V14Z" fill="#EBEDEE"/>
<path d="M11.96 16.73H37.04C37.3901 16.73 37.7258 16.8943 37.9734 17.1869C38.2209 17.4795 38.36 17.8762 38.36 18.29V24.14C38.36 24.5537 38.2209 24.9505 37.9734 25.2431C37.7258 25.5356 37.3901 25.7 37.04 25.7H11.96C11.6099 25.7 11.2742 25.5356 11.0266 25.2431C10.7791 24.9505 10.64 24.5537 10.64 24.14V18.29C10.64 17.8762 10.7791 17.4795 11.0266 17.1869C11.2742 16.8943 11.6099 16.73 11.96 16.73V16.73Z" fill="#BDC3C7"/>
<path d="M11.96 27.65H17.57C17.9201 27.65 18.2558 27.8144 18.5034 28.1069C18.7509 28.3995 18.89 28.7963 18.89 29.21V35.06C18.89 35.4738 18.7509 35.8706 18.5034 36.1631C18.2558 36.4557 17.9201 36.62 17.57 36.62H11.96C11.6099 36.62 11.2742 36.4557 11.0266 36.1631C10.7791 35.8706 10.64 35.4738 10.64 35.06V29.21C10.64 28.7963 10.7791 28.3995 11.0266 28.1069C11.2742 27.8144 11.6099 27.65 11.96 27.65V27.65ZM21.86 27.65H27.47C27.8201 27.65 28.1558 27.8144 28.4034 28.1069C28.6509 28.3995 28.79 28.7963 28.79 29.21V35.06C28.79 35.4738 28.6509 35.8706 28.4034 36.1631C28.1558 36.4557 27.8201 36.62 27.47 36.62H21.86C21.5099 36.62 21.1742 36.4557 20.9266 36.1631C20.6791 35.8706 20.54 35.4738 20.54 35.06V29.21C20.54 28.7963 20.6791 28.3995 20.9266 28.1069C21.1742 27.8144 21.5099 27.65 21.86 27.65V27.65ZM11.96 39.35H17.57C17.9201 39.35 18.2558 39.5144 18.5034 39.8069C18.7509 40.0995 18.89 40.4963 18.89 40.91V46.76C18.89 47.1738 18.7509 47.5706 18.5034 47.8631C18.2558 48.1557 17.9201 48.32 17.57 48.32H11.96C11.6099 48.32 11.2742 48.1557 11.0266 47.8631C10.7791 47.5706 10.64 47.1738 10.64 46.76V40.91C10.64 40.4963 10.7791 40.0995 11.0266 39.8069C11.2742 39.5144 11.6099 39.35 11.96 39.35V39.35ZM21.86 39.35H27.47C27.8201 39.35 28.1558 39.5144 28.4034 39.8069C28.6509 40.0995 28.79 40.4963 28.79 40.91V46.76C28.79 47.1738 28.6509 47.5706 28.4034 47.8631C28.1558 48.1557 27.8201 48.32 27.47 48.32H21.86C21.5099 48.32 21.1742 48.1557 20.9266 47.8631C20.6791 47.5706 20.54 47.1738 20.54 46.76V40.91C20.54 40.4963 20.6791 40.0995 20.9266 39.8069C21.1742 39.5144 21.5099 39.35 21.86 39.35V39.35Z" fill="#3498DB"/>
<path d="M31.7599 39.35H37.0399C37.39 39.35 37.7258 39.5143 37.9733 39.8069C38.2209 40.0994 38.3599 40.4962 38.3599 40.91V46.76C38.3599 47.1737 38.2209 47.5705 37.9733 47.8631C37.7258 48.1556 37.39 48.32 37.0399 48.32H31.7599C31.4099 48.32 31.0741 48.1556 30.8266 47.8631C30.579 47.5705 30.4399 47.1737 30.4399 46.76V40.91C30.4399 40.4962 30.579 40.0994 30.8266 39.8069C31.0741 39.5143 31.4099 39.35 31.7599 39.35Z" fill="#34495E"/>
<path d="M35.885 44.42H32.915C32.7838 44.42 32.6579 44.4817 32.565 44.5914C32.4722 44.7011 32.42 44.8499 32.42 45.005C32.42 45.1602 32.4722 45.309 32.565 45.4187C32.6579 45.5284 32.7838 45.59 32.915 45.59H35.885C36.0163 45.59 36.1422 45.5284 36.2351 45.4187C36.3279 45.309 36.38 45.1602 36.38 45.005C36.38 44.8499 36.3279 44.7011 36.2351 44.5914C36.1422 44.4817 36.0163 44.42 35.885 44.42ZM32.915 43.25H35.885C36.0163 43.25 36.1422 43.1884 36.2351 43.0787C36.3279 42.969 36.38 42.8202 36.38 42.665C36.38 42.5099 36.3279 42.3611 36.2351 42.2514C36.1422 42.1417 36.0163 42.08 35.885 42.08H32.915C32.7838 42.08 32.6579 42.1417 32.565 42.2514C32.4722 42.3611 32.42 42.5099 32.42 42.665C32.42 42.8202 32.4722 42.969 32.565 43.0787C32.6579 43.1884 32.7838 43.25 32.915 43.25Z" fill="white"/>
<path d="M31.7599 27.65H37.0399C37.39 27.65 37.7258 27.8144 37.9733 28.1069C38.2209 28.3995 38.3599 28.7963 38.3599 29.21V35.06C38.3599 35.4738 38.2209 35.8706 37.9733 36.1631C37.7258 36.4557 37.39 36.62 37.0399 36.62H31.7599C31.4099 36.62 31.0741 36.4557 30.8266 36.1631C30.579 35.8706 30.4399 35.4738 30.4399 35.06V29.21C30.4399 28.7963 30.579 28.3995 30.8266 28.1069C31.0741 27.8144 31.4099 27.65 31.7599 27.65Z" fill="#E74C3C"/>
<path d="M32.7497 32.135C32.7497 30.9525 33.6677 29.99 34.7957 29.99H35.2874C35.5263 29.99 35.72 30.3394 35.72 30.5894C35.72 30.8394 35.5263 31.1401 35.2874 31.1401H34.7957C34.1439 31.1401 33.738 31.4521 33.738 32.135C33.738 32.8179 34.1439 33.1053 34.7957 33.1053H35.2874C35.5263 33.1053 35.7405 33.4302 35.7405 33.6805C35.7405 33.9313 35.5263 34.28 35.2874 34.28H34.7957C33.6677 34.28 32.7497 33.3178 32.7497 32.135ZM16.415 31.55H15.26V30.185C15.26 30.0298 15.2078 29.881 15.115 29.7713C15.0222 29.6616 14.8963 29.6 14.765 29.6C14.6337 29.6 14.5078 29.6616 14.415 29.7713C14.3221 29.881 14.27 30.0298 14.27 30.185V31.55H13.115C12.9837 31.55 12.8578 31.6116 12.765 31.7213C12.6721 31.831 12.62 31.9798 12.62 32.135C12.62 32.2901 12.6721 32.4389 12.765 32.5486C12.8578 32.6583 12.9837 32.72 13.115 32.72H14.27V34.085C14.27 34.2401 14.3221 34.3889 14.415 34.4986C14.5078 34.6083 14.6337 34.67 14.765 34.67C14.8963 34.67 15.0222 34.6083 15.115 34.4986C15.2078 34.3889 15.26 34.2401 15.26 34.085V32.72H16.415C16.5463 32.72 16.6722 32.6583 16.765 32.5486C16.8578 32.4389 16.91 32.2901 16.91 32.135C16.91 31.9798 16.8578 31.831 16.765 31.7213C16.6722 31.6116 16.5463 31.55 16.415 31.55ZM16.415 43.25H13.115C12.9837 43.25 12.8578 43.3116 12.765 43.4213C12.6721 43.531 12.62 43.6798 12.62 43.835C12.62 43.9901 12.6721 44.1389 12.765 44.2486C12.8578 44.3583 12.9837 44.42 13.115 44.42H16.415C16.5463 44.42 16.6722 44.3583 16.765 44.2486C16.8578 44.1389 16.91 43.9901 16.91 43.835C16.91 43.6798 16.8578 43.531 16.765 43.4213C16.6722 43.3116 16.5463 43.25 16.415 43.25ZM26.315 43.25H23.015C22.8837 43.25 22.7578 43.3116 22.665 43.4213C22.5721 43.531 22.52 43.6798 22.52 43.835C22.52 43.9901 22.5721 44.1389 22.665 44.2486C22.7578 44.3583 22.8837 44.42 23.015 44.42H26.315C26.4463 44.42 26.5722 44.3583 26.665 44.2486C26.7578 44.1389 26.81 43.9901 26.81 43.835C26.81 43.6798 26.7578 43.531 26.665 43.4213C26.5722 43.3116 26.4463 43.25 26.315 43.25ZM24.665 42.47C24.7963 42.4699 24.9223 42.4082 25.0151 42.2984C25.1079 42.1887 25.16 42.0398 25.16 41.8846C25.16 41.7294 25.1077 41.5806 25.0148 41.4708C24.922 41.3611 24.796 41.2995 24.6647 41.2996C24.5996 41.2996 24.5353 41.3148 24.4752 41.3442C24.4151 41.3736 24.3605 41.4168 24.3146 41.4711C24.2686 41.5255 24.2322 41.59 24.2073 41.661C24.1824 41.732 24.1696 41.8081 24.1697 41.885C24.1697 41.9618 24.1825 42.0379 24.2074 42.1089C24.2323 42.1799 24.2688 42.2444 24.3148 42.2987C24.3608 42.353 24.4154 42.3961 24.4755 42.4255C24.5356 42.4549 24.6 42.47 24.665 42.47V42.47ZM24.665 45.2C24.6 45.2 24.5356 45.2152 24.4755 45.2446C24.4154 45.274 24.3609 45.3172 24.3149 45.3715C24.2689 45.4259 24.2325 45.4904 24.2076 45.5614C24.1828 45.6324 24.17 45.7085 24.17 45.7854C24.17 45.8622 24.1828 45.9383 24.2077 46.0093C24.2327 46.0803 24.2691 46.1448 24.3151 46.1991C24.3611 46.2534 24.4157 46.2965 24.4758 46.3259C24.5359 46.3553 24.6003 46.3704 24.6653 46.3704C24.7967 46.3703 24.9226 46.3086 25.0154 46.1988C25.1082 46.089 25.1604 45.9402 25.1603 45.785C25.1603 45.6298 25.1081 45.4809 25.0152 45.3712C24.9223 45.2615 24.7963 45.1999 24.665 45.2V45.2ZM26.3216 33.1911L25.4223 32.1283L26.3124 31.0769L26.312 31.0765H26.3124C26.3625 31.0173 26.4022 30.947 26.4293 30.8697C26.4564 30.7923 26.4704 30.7094 26.4704 30.6257C26.4704 30.5419 26.4564 30.459 26.4293 30.3817C26.4022 30.3043 26.3625 30.234 26.3124 30.1748C26.2623 30.1156 26.2028 30.0687 26.1373 30.0366C26.0719 30.0046 26.0017 29.9881 25.9309 29.9881C25.86 29.9881 25.7899 30.0046 25.7244 30.0366C25.659 30.0687 25.5995 30.1156 25.5494 30.1748L24.6594 31.2267L23.7694 30.1748C23.7193 30.1156 23.6598 30.0687 23.5944 30.0366C23.5289 30.0046 23.4587 29.9881 23.3879 29.9881C23.317 29.9881 23.2469 30.0046 23.1814 30.0366C23.116 30.0687 23.0565 30.1156 23.0064 30.1748C22.9563 30.234 22.9166 30.3043 22.8895 30.3817C22.8624 30.459 22.8484 30.5419 22.8484 30.6257C22.8484 30.7094 22.8624 30.7923 22.8895 30.8697C22.9166 30.947 22.9563 31.0173 23.0064 31.0765V31.0769L23.8964 32.1283L23.0067 33.1798L23.0064 33.1802C22.9115 33.3012 22.8599 33.461 22.8625 33.626C22.8652 33.791 22.9218 33.9484 23.0206 34.0651C23.1193 34.1818 23.2525 34.2488 23.3921 34.2519C23.5317 34.255 23.667 34.1941 23.7694 34.0819L24.6594 33.03L25.5583 34.0928L25.5596 34.092C25.6613 34.2065 25.7968 34.2694 25.9372 34.2674C26.0776 34.2653 26.2118 34.1985 26.3111 34.0811C26.4103 33.9637 26.4668 33.8052 26.4685 33.6392C26.4701 33.4733 26.4168 33.3132 26.3199 33.193L26.3216 33.1911V33.1911Z" fill="white"/>
<path d="M36.05 21.8V23.36L36.5654 23.75L37.04 23.36V21.8L36.5654 21.41L36.05 21.8ZM36.5654 18.6804L36.05 19.07V20.63L36.5654 21.02L37.04 20.63V19.07L36.5654 18.6804V18.6804ZM34.07 21.8L33.5954 21.41L33.08 21.8V23.36L33.5954 23.75L34.07 23.36V21.8ZM34.07 20.63V19.07L33.5954 18.6804L33.08 19.07V20.63L33.5954 21.02L34.07 20.63ZM35.72 19.07L36.38 18.5092L35.72 17.9H34.4L33.74 18.5092L34.4 19.07H35.72ZM34.4 23.36L33.74 23.9692L34.4 24.53H35.72L36.38 23.9692L35.72 23.36H34.4Z" fill="#7F8C8D"/>
<path d="M37.04 16.73H11.96C11.6099 16.73 11.2742 16.8943 11.0266 17.1869C10.7791 17.4795 10.64 17.8762 10.64 18.29V19.07C10.64 18.6562 10.7791 18.2595 11.0266 17.9669C11.2742 17.6743 11.6099 17.51 11.96 17.51H37.04C37.3901 17.51 37.7258 17.6743 37.9734 17.9669C38.2209 18.2595 38.36 18.6562 38.36 19.07V18.29C38.36 17.8762 38.2209 17.4795 37.9734 17.1869C37.7258 16.8943 37.3901 16.73 37.04 16.73Z" fill="#95A5A6"/>
<path d="M37.0399 36.62H31.7599C31.4099 36.62 31.0741 36.4556 30.8266 36.1631C30.579 35.8705 30.4399 35.4737 30.4399 35.06V35.84C30.4399 36.2537 30.579 36.6505 30.8266 36.9431C31.0741 37.2356 31.4099 37.4 31.7599 37.4H37.0399C37.39 37.4 37.7258 37.2356 37.9733 36.9431C38.2209 36.6505 38.3599 36.2537 38.3599 35.84V35.06C38.3599 35.4737 38.2209 35.8705 37.9733 36.1631C37.7258 36.4556 37.39 36.62 37.0399 36.62Z" fill="#C0392C"/>
<path d="M37.0399 48.32H31.7599C31.4099 48.32 31.0741 48.1557 30.8266 47.8631C30.579 47.5705 30.4399 47.1737 30.4399 46.76V47.54C30.4399 47.9537 30.579 48.3505 30.8266 48.6431C31.0741 48.9357 31.4099 49.1 31.7599 49.1H37.0399C37.39 49.1 37.7258 48.9357 37.9733 48.6431C38.2209 48.3505 38.3599 47.9537 38.3599 47.54V46.76C38.3599 47.1737 38.2209 47.5705 37.9733 47.8631C37.7258 48.1557 37.39 48.32 37.0399 48.32Z" fill="#2C3E50"/>
<path d="M27.47 36.62H21.86C21.5099 36.62 21.1742 36.4556 20.9266 36.1631C20.6791 35.8705 20.54 35.4737 20.54 35.06V35.84C20.54 36.2537 20.6791 36.6505 20.9266 36.9431C21.1742 37.2356 21.5099 37.4 21.86 37.4H27.47C27.8201 37.4 28.1558 37.2356 28.4034 36.9431C28.6509 36.6505 28.79 36.2537 28.79 35.84V35.06C28.79 35.4737 28.6509 35.8705 28.4034 36.1631C28.1558 36.4556 27.8201 36.62 27.47 36.62ZM27.47 48.32H21.86C21.5099 48.32 21.1742 48.1556 20.9266 47.8631C20.6791 47.5705 20.54 47.1737 20.54 46.76V47.54C20.54 47.9537 20.6791 48.3505 20.9266 48.6431C21.1742 48.9356 21.5099 49.1 21.86 49.1H27.47C27.8201 49.1 28.1558 48.9356 28.4034 48.6431C28.6509 48.3505 28.79 47.9537 28.79 47.54V46.76C28.79 47.1737 28.6509 47.5705 28.4034 47.8631C28.1558 48.1556 27.8201 48.32 27.47 48.32ZM17.57 48.32H11.96C11.6099 48.32 11.2742 48.1556 11.0266 47.8631C10.7791 47.5705 10.64 47.1737 10.64 46.76V47.54C10.64 47.9537 10.7791 48.3505 11.0266 48.6431C11.2742 48.9356 11.6099 49.1 11.96 49.1H17.57C17.9201 49.1 18.2558 48.9356 18.5034 48.6431C18.7509 48.3505 18.89 47.9537 18.89 47.54V46.76C18.89 47.1737 18.7509 47.5705 18.5034 47.8631C18.2558 48.1556 17.9201 48.32 17.57 48.32ZM17.57 36.62H11.96C11.6099 36.62 11.2742 36.4556 11.0266 36.1631C10.7791 35.8705 10.64 35.4737 10.64 35.06V35.84C10.64 36.2537 10.7791 36.6505 11.0266 36.9431C11.2742 37.2356 11.6099 37.4 11.96 37.4H17.57C17.9201 37.4 18.2558 37.2356 18.5034 36.9431C18.7509 36.6505 18.89 36.2537 18.89 35.84V35.06C18.89 35.4737 18.7509 35.8705 18.5034 36.1631C18.2558 36.4556 17.9201 36.62 17.57 36.62Z" fill="#2980B9"/>
<path d="M39.68 51.83H9.32C8.96991 51.83 8.63417 51.6657 8.38662 51.3731C8.13907 51.0806 8 50.6838 8 50.27V51.44C8 51.8538 8.13907 52.2506 8.38662 52.5431C8.63417 52.8357 8.96991 53 9.32 53H39.68C40.0301 53 40.3658 52.8357 40.6134 52.5431C40.8609 52.2506 41 51.8538 41 51.44V50.27C41 50.6838 40.8609 51.0806 40.6134 51.3731C40.3658 51.6657 40.0301 51.83 39.68 51.83Z" fill="#BDC3C7"/>
</svg>
