<svg width="49" height="232" viewBox="0 0 49 232" fill="none" xmlns="http://www.w3.org/2000/svg">
<rect x="0.000305176" width="49" height="232" fill="black"/>
<path d="M33 222.608L15.9375 222.608L15.9375 217.112C15.9375 215.604 16.2812 214.248 16.9687 213.045C17.6484 211.842 18.6133 210.905 19.8633 210.233C21.1055 209.553 22.5 209.209 24.0469 209.201L24.832 209.201C26.3945 209.201 27.7969 209.533 29.0391 210.198C30.2734 210.854 31.2422 211.783 31.9453 212.987C32.6406 214.182 32.9922 215.518 33 216.994L33 222.608ZM19.1133 218.494L29.8359 218.494L29.8359 217.065C29.8359 215.885 29.418 214.979 28.582 214.346C27.7383 213.713 26.4883 213.397 24.832 213.397L24.0937 213.397C22.4453 213.397 21.2031 213.713 20.3672 214.346C19.5312 214.979 19.1133 215.901 19.1133 217.112L19.1133 218.494ZM33 194.789L33 198.891L15.9375 198.891L15.9375 194.789L33 194.789ZM28.3594 177.389L15.9375 173.99L15.9375 169.397L33 175.139L33 179.639L15.9375 185.334L15.9375 180.775L28.3594 177.389ZM33 155.84L33 159.941L15.9375 159.941L15.9375 155.84L33 155.84ZM28.4648 136.26C27.8633 136.26 27.3945 136.475 27.0586 136.904C26.7227 137.326 26.375 138.072 26.0156 139.143C25.6562 140.213 25.3086 141.088 24.9727 141.768C23.8867 143.978 22.3945 145.084 20.4961 145.084C19.5508 145.084 18.7187 144.81 18 144.264C17.2734 143.709 16.7109 142.928 16.3125 141.92C15.9062 140.912 15.7031 139.779 15.7031 138.521C15.7031 137.295 15.9219 136.197 16.3594 135.228C16.7969 134.252 17.4219 133.494 18.2344 132.955C19.0391 132.416 19.9609 132.146 21 132.146L21 136.248C20.3047 136.248 19.7656 136.463 19.3828 136.893C19 137.314 18.8086 137.889 18.8086 138.615C18.8086 139.35 18.9727 139.932 19.3008 140.361C19.6211 140.783 20.0312 140.994 20.5312 140.994C20.9687 140.994 21.3672 140.76 21.7266 140.291C22.0781 139.822 22.4453 138.998 22.8281 137.818C23.2031 136.639 23.6094 135.67 24.0469 134.912C25.1094 133.068 26.5742 132.146 28.4414 132.146C29.9336 132.146 31.1055 132.709 31.957 133.834C32.8086 134.959 33.2344 136.502 33.2344 138.463C33.2344 139.846 32.9883 141.1 32.4961 142.225C31.9961 143.342 31.3164 144.185 30.457 144.756C29.5898 145.318 28.5937 145.6 27.4687 145.6L27.4687 141.475C28.3828 141.475 29.0586 141.24 29.4961 140.771C29.9258 140.295 30.1406 139.525 30.1406 138.463C30.1406 137.783 29.9961 137.248 29.707 136.857C29.4102 136.459 28.9961 136.26 28.4648 136.26ZM29.8125 112.426L29.8125 118.062L33 119.047L33 123.441L15.9375 117.183L15.9375 113.316L33 107.012L33 111.43L29.8125 112.426ZM26.6367 117.078L26.6367 113.41L20.7187 115.25L26.6367 117.078ZM28.4648 89.0369C27.8633 89.0369 27.3945 89.2517 27.0586 89.6814C26.7227 90.1033 26.375 90.8494 26.0156 91.9197C25.6562 92.99 25.3086 93.865 24.9727 94.5447C23.8867 96.7556 22.3945 97.8611 20.4961 97.8611C19.5508 97.8611 18.7187 97.5876 18 97.0408C17.2734 96.4861 16.7109 95.7048 16.3125 94.697C15.9062 93.6892 15.7031 92.5564 15.7031 91.2986C15.7031 90.072 15.9219 88.9744 16.3594 88.0056C16.7969 87.0291 17.4219 86.2712 18.2344 85.7322C19.0391 85.1931 19.9609 84.9236 21 84.9236L21 89.0251C20.3047 89.0251 19.7656 89.24 19.3828 89.6697C19 90.0916 18.8086 90.6658 18.8086 91.3923C18.8086 92.1267 18.9727 92.7087 19.3008 93.1384C19.6211 93.5603 20.0312 93.7712 20.5312 93.7712C20.9687 93.7712 21.3672 93.5369 21.7266 93.0681C22.0781 92.5994 22.4453 91.7751 22.8281 90.5955C23.2031 89.4158 23.6094 88.447 24.0469 87.6892C25.1094 85.8455 26.5742 84.9236 28.4414 84.9236C29.9336 84.9236 31.1055 85.4861 31.957 86.6111C32.8086 87.7361 33.2344 89.2791 33.2344 91.24C33.2344 92.6228 32.9883 93.8767 32.4961 95.0017C31.9961 96.1189 31.3164 96.9626 30.457 97.533C29.5898 98.0955 28.5937 98.3767 27.4687 98.3767L27.4687 94.2517C28.3828 94.2517 29.0586 94.0173 29.4961 93.5486C29.9258 93.072 30.1406 92.3025 30.1406 91.24C30.1406 90.5603 29.9961 90.0251 29.707 89.6345C29.4102 89.2361 28.9961 89.0369 28.4648 89.0369Z" fill="white"/>
<path d="M15.3468 26.2372C17.5924 25.5081 23.9609 28.0927 24.7767 29.0225C25.5872 29.9476 20.2963 30.33 17.4237 30.7557C14.4597 31.2016 11.5035 31.7342 10.6954 30.8014C9.88786 29.8817 13.1042 26.9711 15.3468 26.2372" fill="#F79423"/>
<path d="M30.8021 24.6163C33.3683 23.867 40.2498 26.9486 41.0811 27.9983C41.904 29.0611 35.9867 29.3259 32.7567 29.716C29.4133 30.1162 26.0646 30.6185 25.241 29.5605C24.4121 28.5107 28.2448 25.3579 30.8039 24.6163" fill="#F79423"/>
<path d="M15.7399 28.8729C17.2818 27.8588 23.9182 28.8961 25.0368 29.5332C26.1661 30.1649 21.887 31.4444 19.6634 32.3184C17.3768 33.2227 15.1366 34.2143 14.0103 33.5671C12.8768 32.9377 14.2044 29.8971 15.7411 28.8729" fill="#F79423"/>
<path d="M21.9611 24.0534C24.2061 24.2547 26.5686 28.1818 26.3495 29.1122C26.1382 30.0372 21.9867 28.6075 19.5422 27.9835C17.0247 27.3434 14.4276 26.7775 14.6521 25.8525C14.8688 24.9173 19.7108 23.8545 21.9611 24.0534" fill="#F79423"/>
<path d="M29.6502 28.4442C31.9035 28.6377 34.2637 32.5678 34.044 33.4952C33.8249 34.4256 29.6758 32.9929 27.2313 32.3712C24.7209 31.7341 22.1161 31.1606 22.3406 30.2331C22.5531 29.3057 27.4053 28.2482 29.6502 28.446" fill="#F79423"/>
<path d="M8.79773 54.6588C8.79773 60.2585 16.8003 61.8895 25.361 61.8895C33.9211 61.8895 41.9266 60.2585 41.9266 54.6588C41.9266 49.0699 33.9217 32.3742 25.361 32.3742C16.8003 32.3742 8.79773 49.0705 8.79773 54.6588Z" fill="#F79423"/>
<path d="M30.4988 33.0624C30.4989 33.3409 30.4442 33.6167 30.3377 33.874C30.2312 34.1313 30.075 34.3651 29.8781 34.562C29.6812 34.7589 29.4474 34.9151 29.19 35.0216C28.9327 35.1281 28.657 35.1829 28.3785 35.1827H22.343C21.7807 35.1827 21.2414 34.9593 20.8437 34.5617C20.4461 34.1641 20.2227 33.6248 20.2227 33.0624C20.2227 32.5001 20.4461 31.9608 20.8437 31.5632C21.2414 31.1655 21.7807 30.9421 22.343 30.9421H28.3779C28.6564 30.9421 28.9321 30.9968 29.1895 31.1034C29.4468 31.2099 29.6806 31.3661 29.8775 31.5629C30.0745 31.7598 30.2307 31.9936 30.3373 32.2509C30.4439 32.5082 30.4988 32.7839 30.4988 33.0624" fill="#845939"/>
<path d="M29.2679 48.3236C28.6106 47.6224 27.7033 47.1533 26.8418 46.7638C25.9446 46.3553 24.6449 46.0222 24.0737 45.1429C23.5946 44.4066 24.2548 43.6341 24.9276 43.4097C26.0106 43.0457 27.3465 43.4839 28.2971 44.0189C28.7709 44.2837 29.2708 44.0242 29.4513 43.5498C29.6502 43.025 29.8491 42.4995 30.0451 41.9752C30.165 41.6564 29.9715 41.2485 29.6865 41.0881C28.8226 40.609 27.9224 40.3465 26.9718 40.2219V38.6164C26.9718 38.1883 26.615 37.8314 26.1869 37.8314H24.7061C24.2804 37.8314 23.9211 38.1883 23.9211 38.6164V40.4095C22.4558 40.8322 21.1204 41.7757 20.6003 43.2743C20.022 44.9333 20.3735 46.651 21.6043 47.9074C22.2646 48.583 23.1564 49.0266 24.0031 49.4107C24.9584 49.8418 26.1335 50.1523 26.7504 51.0726C27.4106 52.0565 26.5568 53.0273 25.6341 53.3057C24.3956 53.6774 22.8946 53.1199 21.8543 52.4721C21.3983 52.1871 20.8681 52.4798 20.7024 52.9412L20.1289 54.539C20.0066 54.8804 20.2102 55.2425 20.4905 55.4254C21.4719 56.0679 22.5983 56.3861 23.7525 56.5191V58.2089C23.7525 58.4387 23.8368 58.6145 23.9615 58.7391C23.9692 58.7475 23.977 58.7546 23.9817 58.7623C23.9888 58.7697 23.9966 58.7764 24.0049 58.7825C24.1296 58.9101 24.3053 58.9939 24.5351 58.9939H26.0414C26.2488 58.992 26.4471 58.9086 26.5936 58.7618C26.74 58.6149 26.8228 58.4163 26.824 58.2089V56.3434C28.4526 55.8743 29.7114 54.8222 30.3461 53.1882C30.9969 51.5215 30.4435 49.5817 29.2637 48.323" fill="#25333A"/>
<path d="M29.2679 47.2394C28.6106 46.5411 27.7033 46.0721 26.8418 45.6826C25.9446 45.2741 24.6449 44.941 24.0737 44.0592C23.5946 43.3277 24.2548 42.5529 24.9276 42.3261C26.0106 41.9645 27.3465 42.4003 28.2971 42.9353C28.7709 43.2031 29.2708 42.94 29.4513 42.4662C29.6502 41.9413 29.8491 41.4188 30.0451 40.894C30.165 40.5727 29.9715 40.1648 29.6865 40.0069C28.8226 39.5254 27.9224 39.2653 26.9718 39.1382V37.5327C26.9718 37.107 26.615 36.7502 26.1869 36.7502H24.7061C24.2804 36.7502 23.9211 37.107 23.9211 37.5327V39.3259C22.4558 39.7492 21.1204 40.6945 20.6003 42.1931C20.022 43.852 20.3735 45.5697 21.6043 46.8237C22.2646 47.4994 23.1564 47.9453 24.0031 48.3271C24.9584 48.7582 26.1335 49.0687 26.7504 49.989C27.4106 50.9723 26.5568 51.9437 25.6341 52.2239C24.3956 52.5962 22.8946 52.0387 21.8543 51.3885C21.3983 51.1053 20.8681 51.3986 20.7024 51.8576L20.1289 53.4577C20.0066 53.7962 20.2102 54.1613 20.4905 54.3442C21.4719 54.9842 22.5983 55.3049 23.7525 55.4379V57.1277C23.7525 57.3545 23.8368 57.5308 23.9615 57.6579C23.9692 57.6662 23.977 57.6733 23.9817 57.6811C23.99 57.6871 23.9978 57.6939 24.0049 57.7012C24.1296 57.8259 24.3053 57.9102 24.5351 57.9102H26.0414C26.2483 57.9084 26.4462 57.8254 26.5925 57.6792C26.7389 57.533 26.822 57.3351 26.824 57.1283V55.2603C28.4526 54.7919 29.7114 53.7415 30.3461 52.1057C30.9969 50.4397 30.4435 48.4975 29.2637 47.2388" fill="#25333A"/>
</svg>
