<svg width="49" height="232" viewBox="0 0 49 232" fill="none" xmlns="http://www.w3.org/2000/svg">
<rect width="49" height="232" fill="black"/>
<path d="M44.4062 66.2109C44.4062 59.557 34.3383 56.25 24.5383 56.25H24.5C14.7383 56.25 4.59375 59.1586 4.59375 66.2508V67.4461H43.832V67.4063H44.4062V66.2109Z" fill="url(#paint0_linear)"/>
<path d="M27.9836 53.8992H21.0164V57.8836C21.0164 59.6766 22.4328 61.1508 24.1938 61.1508H24.8445C26.6055 61.1508 28.0219 59.6766 28.0219 57.8836L27.9836 53.8992V53.8992Z" fill="#709921"/>
<path d="M34.9508 38.0812H14.0492C11.7906 38.0812 9.95312 40.1133 9.95312 42.6234C9.95312 45.1336 11.7906 47.1656 14.0492 47.1656H34.9891C37.2477 47.1656 39.0852 45.1336 39.0852 42.6234C39.0469 40.1531 37.2094 38.0812 34.9508 38.0812V38.0812Z" fill="#709921"/>
<path d="M24.5 22.4227C17.8391 22.4227 11.6758 29.8336 11.6758 40.5117C11.6758 51.1102 18.0305 56.3695 24.5 56.3695C30.9695 56.3695 37.3242 51.1102 37.3242 40.5117C37.3242 29.8336 31.1609 22.4227 24.5 22.4227V22.4227Z" fill="#82CC2B"/>
<path d="M39.2 32.7023C38.9704 32.5031 38.7024 32.264 38.3961 32.1047C38.3196 31.6664 38.2813 31.268 38.1664 30.8297C39.0086 29.9531 39.8125 29.0367 40.5399 28.0406C40.1188 28.5984 39.3532 28.9172 38.511 28.9172C38.243 28.9172 37.9368 28.8773 37.6305 28.7976H37.5922C36.9414 26.7258 35.9079 24.6937 34.2618 23.1C34.7211 22.9406 35.1805 22.7812 35.6399 22.582C35.525 22.6219 32.8071 21.8648 32.7305 21.825C33.2664 21.1875 33.6493 20.3906 33.7641 19.5539C33.4196 20.3906 32.5391 20.8289 31.7352 21.1476C31.6969 21.1476 31.6586 21.1875 31.6586 21.1875C29.8211 20.2312 27.4477 19.6336 24.5 19.5937C19.6383 19.6336 16.4227 21.2672 14.3172 23.5781C14.2407 23.5383 12.4414 22.6219 11.7141 22.0242C11.9438 22.9805 12.1275 23.9088 13.1688 24.4945C10.9485 25.0922 10.2977 26.0086 9.91488 26.6859C10.7188 26.3672 11.561 26.2875 12.4032 26.2875C11.4461 28.1203 10.9102 30.1125 10.6422 31.9851C9.64691 32.5828 8.91957 33.6586 8.68988 34.814C9.18754 34.3758 9.80004 34.0172 10.4125 33.818C10.1446 37.4437 10.6422 40.3125 10.6422 40.3125C10.6422 40.3125 11.8711 43.8187 11.9093 43.8187C11.8328 40.95 13.6282 35.8101 14.4321 33.6586C14.7766 32.7023 15.6571 32.1047 16.6141 32.1047C16.7672 32.1047 16.8821 32.1047 17.0352 32.1445C18.7196 32.4633 21.4375 32.8617 24.4618 32.8617H24.5383C27.5243 32.8617 30.2422 32.4633 31.9649 32.1445C32.118 32.1047 32.2329 32.1047 32.386 32.1047C33.343 32.1047 34.2235 32.7023 34.568 33.6586C35.3719 35.85 37.1788 40.95 37.1022 43.8187C37.1405 43.8187 38.3579 40.3125 38.3579 40.3125C38.3579 40.3125 38.8172 37.7226 38.6258 34.3758C39.0852 34.4953 39.6594 34.6945 40.3102 35.1328C40.2719 34.4555 40.1188 33.539 39.2 32.7023Z" fill="url(#paint1_radial)"/>
<path d="M30.089 49.7555C29.9359 49.5961 29.7828 49.357 29.7828 49.118C29.8211 48.7195 30.1656 48.4805 30.5101 48.3211C31.1609 48.0023 31.8117 47.6438 32.539 47.5641C32.807 47.5242 33.1132 47.5242 33.3429 47.6836C33.6109 47.8828 33.764 48.2414 33.7257 48.6C33.6875 48.9586 33.5343 49.2773 33.3047 49.5164C32.3859 50.6719 31.1226 50.7914 30.089 49.7555V49.7555Z" fill="#709921"/>
<path d="M31.1609 51.4688C31.2758 51.5883 31.3141 51.7875 31.2758 51.9867C31.2375 52.2258 31.0461 52.3852 30.8547 52.5844C30.7016 52.7039 30.5867 52.8235 30.3953 52.9031C30.2039 52.9828 30.0125 52.9031 29.8977 52.7438C29.8594 52.6242 29.8594 52.5047 29.8594 52.425C29.8211 51.8672 29.9742 51.0703 30.6633 51.15C30.8547 51.1899 31.0461 51.3094 31.1609 51.4688V51.4688Z" fill="#709921"/>
<path d="M16.2695 48.9984C16.1164 49.0383 15.925 48.9984 15.7719 48.8391C15.5805 48.6797 15.5422 48.4406 15.4656 48.2016C15.4274 48.0023 15.3891 47.8031 15.4274 47.6438C15.4656 47.4844 15.6188 47.2852 15.8102 47.2852C15.8867 47.2852 16.0016 47.325 16.0781 47.3648C16.5375 47.6039 17.1883 48.1219 16.7672 48.6797C16.6141 48.8391 16.4609 48.9586 16.2695 48.9984V48.9984Z" fill="#709921"/>
<path d="M18.0688 34.0969C18.375 34.057 18.7578 34.0969 18.9875 34.2961C19.2938 34.575 19.2938 35.1328 19.0258 35.4914C18.7961 35.85 18.375 36.0492 17.9922 36.1688C17.7625 36.2485 17.4946 36.3281 17.2649 36.2485C16.9203 36.1688 16.6524 35.8899 16.4993 35.5711C15.925 34.336 17.0352 34.1766 18.0688 34.0969Z" fill="#709921"/>
<path d="M23.007 46.3687C23.0453 46.3687 23.0836 46.4086 23.1219 46.4086H25.8399C25.8781 46.4086 25.9164 46.4086 25.9547 46.3687C26.1844 46.2492 26.3375 46.0101 26.2227 45.7312C26.1078 45.4523 25.5719 44.6555 24.5 44.6555C23.4281 44.6555 22.8922 45.4523 22.7774 45.7312C22.6625 45.9703 22.7774 46.2492 23.007 46.3687Z" fill="#597718"/>
<path d="M28.5195 51.0703C28.5195 52.3453 26.7203 52.5844 24.5 52.5844C22.2797 52.5844 20.4805 52.3453 20.4805 51.0703C20.4805 49.7953 22.2797 47.9625 24.5 47.9625C26.7203 47.9625 28.5195 49.7953 28.5195 51.0703Z" fill="#333333"/>
<path d="M24.5 52.5844C25.8399 52.5844 27.0649 52.5047 27.7922 52.1461C27.7156 50.9906 26.2609 50.0742 24.5 50.0742C22.7391 50.0742 21.2844 50.9906 21.2078 52.1461C21.9352 52.5047 23.1602 52.5844 24.5 52.5844V52.5844Z" fill="#F05455"/>
<path d="M17.954 45.532C16.0782 45.532 14.5852 43.7391 14.5852 41.5078C14.5852 39.2765 16.1165 37.4836 17.954 37.4836C19.8297 37.4836 21.3227 39.2765 21.3227 41.5078C21.3227 43.7391 19.8297 45.532 17.954 45.532V45.532Z" fill="#4E6B17"/>
<path d="M17.9539 38.0422C19.5618 38.0422 21.1389 39.6718 21.1389 41.6242C21.1389 43.5765 19.979 45.2938 18.0037 45.2938C16.0284 45.2938 14.7996 43.449 14.7996 41.4967C14.7996 39.5443 16.3844 38.0422 17.9539 38.0422V38.0422ZM17.9539 36.9664C15.8102 36.9664 14.0493 38.9985 14.0493 41.5086C14.0493 44.0188 15.7719 46.0508 17.9539 46.0508C20.0977 46.0508 21.8586 44.0188 21.8586 41.5086C21.8586 38.9985 20.0977 36.9664 17.9539 36.9664Z" fill="#709921"/>
<path d="M18.0305 43.8985C19.7007 43.8985 21.0547 42.4357 21.0547 40.6313C21.0547 38.8268 19.7007 37.3641 18.0305 37.3641C16.3603 37.3641 15.0063 38.8268 15.0063 40.6313C15.0063 42.4357 16.3603 43.8985 18.0305 43.8985Z" fill="white"/>
<path d="M18.0305 37.8023C19.4469 37.8023 20.6336 39.0773 20.6336 40.6312C20.6336 42.1852 19.4852 43.4602 18.0305 43.4602C16.5758 43.4602 15.4274 42.1852 15.4274 40.6312C15.4274 39.0773 16.6141 37.8023 18.0305 37.8023ZM18.0305 36.9258C16.1165 36.9258 14.5852 38.5992 14.5852 40.6312C14.5852 42.6633 16.1165 44.3367 18.0305 44.3367C19.9446 44.3367 21.4758 42.6633 21.4758 40.6312C21.4758 38.5992 19.9446 36.9258 18.0305 36.9258Z" fill="#709921"/>
<path d="M30.893 45.532C29.0172 45.532 27.5242 43.7391 27.5242 41.5078C27.5242 39.2765 29.0555 37.4836 30.893 37.4836C32.7688 37.4836 34.2617 39.2765 34.2617 41.5078C34.2617 43.7391 32.7688 45.532 30.893 45.532Z" fill="#4E6B17"/>
<path d="M30.893 38.0422C32.5008 38.0422 34.078 39.6718 34.078 41.6242C34.078 43.5765 32.9181 45.2938 30.9427 45.2938C28.9713 45.2938 27.7386 43.449 27.7386 41.4967C27.7386 39.5443 29.3234 38.0422 30.893 38.0422ZM30.893 36.9664C28.7492 36.9664 26.9883 38.9985 26.9883 41.5086C26.9883 44.0188 28.7109 46.0508 30.893 46.0508C33.0367 46.0508 34.7977 44.0188 34.7977 41.5086C34.7977 38.9985 33.0367 36.9664 30.893 36.9664V36.9664Z" fill="#709921"/>
<path d="M30.9695 43.8985C32.6398 43.8985 33.9938 42.4357 33.9938 40.6313C33.9938 38.8268 32.6398 37.3641 30.9695 37.3641C29.2993 37.3641 27.9453 38.8268 27.9453 40.6313C27.9453 42.4357 29.2993 43.8985 30.9695 43.8985Z" fill="white"/>
<path d="M30.9695 37.8023C32.386 37.8023 33.5727 39.0773 33.5727 40.6312C33.5727 42.1852 32.4242 43.4602 30.9695 43.4602C29.5149 43.4602 28.3664 42.1852 28.3664 40.6312C28.3664 39.0773 29.5531 37.8023 30.9695 37.8023ZM30.9695 36.9258C29.0555 36.9258 27.5242 38.5992 27.5242 40.6312C27.5242 42.6633 29.0555 44.3367 30.9695 44.3367C32.8836 44.3367 34.4149 42.6633 34.4149 40.6312C34.4149 38.5992 32.8836 36.9258 30.9695 36.9258Z" fill="#709921"/>
<path d="M15.5499 59.5411C15.3202 59.2622 15.0484 59.1785 14.7842 59.1427C14.3823 59.0869 14.0378 59.1865 13.8425 59.4893C13.5018 60.0192 13.3831 61.0392 12.4223 61.1508C11.7945 61.2225 11.6835 58.9674 11.6758 58.0948C11.649 55.0029 11.8289 53.6044 11.9017 53.3374C11.9782 53.0665 12.0356 52.5844 12.2003 52.3055C12.8051 52.2935 13.2415 51.7795 13.2913 51.15C13.341 50.4687 12.1696 49.357 10.8719 50.3173C10.2211 50.7994 9.45549 52.1899 9.37893 56.1743C9.37893 56.1743 9.23346 56.776 8.95018 56.0349C8.6669 55.2938 8.18838 53.9231 8.79323 52.3294C9.18752 52.3374 9.60862 51.9628 9.62776 51.3213C9.65456 50.5165 8.95401 50.1619 8.4487 50.2177C7.94338 50.2735 6.94041 50.5205 6.58057 52.0106C6.37385 52.8633 6.40065 53.7399 6.40065 53.7399C6.40065 53.7399 5.45893 53.967 5.3594 54.0546C5.09909 54.2897 4.43299 54.724 4.51338 56.3297C4.54784 57.0429 4.78901 57.9314 4.78901 57.9314C4.78901 57.9314 4.2569 58.2183 4.05018 58.4813C3.7401 58.8717 3.48745 59.31 3.36495 59.7961C3.15057 60.6687 3.23096 61.5572 3.48362 62.4099C3.64057 62.9438 3.85877 63.4617 4.1076 63.9598C4.27221 64.2905 4.51338 64.5973 4.61291 64.9638C4.65885 65.1352 4.6512 65.2866 4.62057 65.442C4.58995 65.6093 4.29901 66.9879 4.2033 67.4899H9.59331C9.63159 67.3186 9.69666 67.1114 9.73877 66.9401C9.82682 66.5935 10.5312 66.3982 10.8106 66.2388C12.5716 65.2467 14.4206 63.7127 15.4542 61.7405C15.8025 61.0791 16.0092 60.0989 15.5499 59.5411V59.5411ZM6.76432 57.7003L6.46573 56.0189L6.87151 55.8635C6.87151 55.8635 7.0744 56.4134 7.1969 57.1744C7.3194 57.9354 6.76432 57.7003 6.76432 57.7003Z" fill="#82CC2B"/>
<path d="M8.43338 64.7726C8.37979 64.7845 8.77026 63.6131 7.86299 62.5134C7.08206 61.5691 5.95276 61.9556 5.95276 61.9556C5.95276 61.9556 6.86768 62.123 7.54143 62.9039C8.21518 63.6888 8.43338 64.7726 8.43338 64.7726V64.7726Z" fill="#709921"/>
<path d="M5.93362 58.29C6.21307 58.5251 6.4351 58.8837 6.38916 59.2542C6.33557 59.6925 5.91448 60.0033 5.48955 60.0511C5.06463 60.0989 4.65119 59.9475 4.2569 59.7762C4.54783 60.3659 5.11823 60.3699 5.11823 60.3699C5.11823 60.3699 5.44744 61.8162 5.61971 61.8839L5.65416 60.4575C5.65416 60.4575 6.45807 60.589 6.78729 59.4694C6.99401 58.7602 6.64182 58.2143 6.14799 57.9792C5.65416 57.7442 4.95362 57.9593 4.95362 57.9593C4.95362 57.9593 5.65033 58.051 5.93362 58.29V58.29Z" fill="#709921"/>
<path d="M6.6112 54.0546C6.91745 54.1701 7.1969 54.3614 7.22753 54.7359C7.26581 55.1742 6.91745 55.5727 6.5155 55.7161C6.11354 55.8595 5.67331 55.8037 5.25604 55.7241C5.61206 56.1424 6.08675 56.0986 6.13268 56.1982C6.19393 56.3337 6.15948 57.0708 6.42362 57.4891C6.55761 57.7003 6.90214 57.7362 6.90214 57.7362C6.90214 57.7362 6.51167 57.1027 6.5844 56.1743C6.5844 56.1743 6.90596 56.0827 7.13565 55.9312C7.48784 55.7001 7.63331 55.2659 7.66393 54.8555C7.71753 54.1144 7.04761 53.8036 6.56143 53.7518C5.83409 53.6721 5.3594 54.0586 5.3594 54.0586C5.3594 54.0586 6.26667 53.9231 6.6112 54.0546V54.0546Z" fill="#709921"/>
<path d="M4.62059 65.4539C5.17567 65.8324 6.02934 65.9838 6.61888 65.9201C5.88005 65.7328 4.86942 65.0117 4.37177 64.414C4.4713 64.5893 4.567 64.7646 4.61677 64.9599C4.6627 65.1312 4.65505 65.2826 4.62442 65.438C4.62442 65.442 4.62059 65.4499 4.62059 65.4539V65.4539Z" fill="#709921"/>
<path d="M7.86298 66.5496C8.22665 66.8843 9.05735 67.0796 9.71579 67.0198L9.73876 66.9361C9.79618 66.709 10.1139 66.5496 10.4087 66.4182C9.76173 66.6492 8.54055 66.6532 7.86298 66.5496V66.5496Z" fill="#709921"/>
<path d="M7.65246 52.0226C7.6448 52.0345 7.6448 52.0505 7.64863 52.0624C7.68309 52.3453 7.83621 52.6123 8.05824 52.7796C8.21902 52.8991 8.41043 52.9629 8.60567 52.9709C8.64778 52.7597 8.7052 52.5485 8.78942 52.3254C8.41809 52.3373 8.04676 52.2338 7.73668 52.0226C7.71371 52.0106 7.6716 51.9947 7.65246 52.0226V52.0226Z" fill="#709921"/>
<path d="M11.0518 51.7477C11.048 52.1222 11.2432 52.4728 11.5074 52.7278C11.6413 52.8593 11.8021 52.9709 11.9782 53.0386C12.0318 52.7916 12.0931 52.5087 12.2041 52.3095C12.0318 52.3055 11.8595 52.2617 11.7026 52.1899C11.4614 52.0824 11.2547 51.915 11.0518 51.7477V51.7477Z" fill="#709921"/>
<path d="M13.6434 59.8798C13.4138 60.4097 13.1802 61.0591 12.4223 61.1468C12.3381 61.1548 12.2653 61.1229 12.1964 61.0591C12.2423 61.6966 12.3227 62.4656 12.2079 63.0553C13.0041 62.2106 13.6128 61.2185 13.6434 59.8798V59.8798Z" fill="#709921"/>
<path d="M33.6722 61.7365C34.7058 63.7087 36.5548 65.2427 38.3157 66.2348C38.5952 66.3942 39.3034 66.5894 39.3876 66.9361C39.4297 67.1074 39.4948 67.3146 39.5331 67.4859H44.9231C44.8235 66.9839 44.5364 65.6053 44.5058 65.4379C44.479 65.2865 44.4713 65.1311 44.5134 64.9598C44.6091 64.5933 44.8503 64.2904 45.0188 63.9558C45.2676 63.4577 45.4858 62.9437 45.6427 62.4058C45.8954 61.5532 45.9758 60.6607 45.7614 59.7921C45.6389 59.302 45.3863 58.8637 45.0762 58.4772C44.8695 58.2183 44.3374 57.9274 44.3374 57.9274C44.3374 57.9274 44.5785 57.0389 44.613 56.3257C44.6934 54.72 44.0273 54.2857 43.767 54.0506C43.6674 53.959 42.7257 53.7358 42.7257 53.7358C42.7257 53.7358 42.7525 52.8593 42.5458 52.0066C42.1859 50.5165 41.183 50.2694 40.6777 50.2136C40.1724 50.1579 39.4718 50.5125 39.4986 51.3173C39.5216 51.9548 39.9388 52.3333 40.3331 52.3254C40.938 53.9191 40.4633 55.2937 40.1762 56.0308C39.8929 56.7679 39.7474 56.1703 39.7474 56.1703C39.6709 52.1859 38.9052 50.7954 38.2545 50.3133C36.9567 49.353 35.7853 50.4647 35.8351 51.146C35.881 51.7755 36.3213 52.2895 36.9261 52.3015C37.0945 52.5804 37.152 53.0625 37.2247 53.3334C37.2974 53.5964 37.4774 54.9989 37.4506 58.0908C37.4429 58.9633 37.3319 61.2225 36.7041 61.1468C35.7432 61.0352 35.6284 60.0152 35.2838 59.4853C35.0886 59.1825 34.7441 59.0868 34.3421 59.1386C34.078 59.1745 33.8062 59.2582 33.5765 59.5371C33.121 60.0989 33.3238 61.079 33.6722 61.7365V61.7365ZM41.9333 57.1743C42.0558 56.4133 42.2587 55.8635 42.2587 55.8635L42.6645 56.0189L42.3659 57.7003C42.3659 57.7003 41.807 57.9314 41.9333 57.1743Z" fill="#82CC2B"/>
<path d="M40.693 64.7726C40.7466 64.7845 40.3561 63.6131 41.2634 62.5134C42.0443 61.5691 43.1736 61.9556 43.1736 61.9556C43.1736 61.9556 42.2587 62.123 41.5849 62.9039C40.915 63.6888 40.693 64.7726 40.693 64.7726V64.7726Z" fill="#709921"/>
<path d="M43.1928 58.29C42.9133 58.5251 42.6913 58.8837 42.7372 59.2542C42.7908 59.6925 43.2119 60.0033 43.6368 60.0511C44.0579 60.1029 44.4752 59.9475 44.8695 59.7762C44.5786 60.3659 44.0082 60.3699 44.0082 60.3699C44.0082 60.3699 43.679 61.8162 43.5067 61.8839L43.4722 60.4575C43.4722 60.4575 42.6683 60.589 42.3391 59.4694C42.1324 58.7602 42.4846 58.2143 42.9784 57.9792C43.4722 57.7442 44.1728 57.9593 44.1728 57.9593C44.1728 57.9593 43.4799 58.051 43.1928 58.29Z" fill="#709921"/>
<path d="M42.5152 54.0546C42.2089 54.1701 41.9295 54.3614 41.8988 54.7359C41.8606 55.1742 42.2089 55.5727 42.6109 55.7161C43.0128 55.8595 43.4531 55.8037 43.8703 55.7241C43.5143 56.1424 43.0396 56.0986 42.9937 56.1982C42.9324 56.3337 42.9669 57.0708 42.7027 57.4891C42.5688 57.7003 42.2242 57.7362 42.2242 57.7362C42.2242 57.7362 42.6147 57.1026 42.542 56.1743C42.542 56.1743 42.2204 56.0826 41.9907 55.9312C41.6385 55.7001 41.4931 55.2659 41.4624 54.8555C41.4088 54.1144 42.0788 53.8036 42.5649 53.7518C43.2923 53.6721 43.767 54.0586 43.767 54.0586C43.767 54.0586 42.8597 53.9231 42.5152 54.0546V54.0546Z" fill="#709921"/>
<path d="M44.5096 65.4539C43.9545 65.8324 43.1009 65.9838 42.5114 65.92C43.2502 65.7328 44.2608 65.0116 44.7585 64.4139C44.6589 64.5893 44.5632 64.7646 44.5135 64.9598C44.4675 65.1311 44.4752 65.2825 44.5058 65.4379C44.5058 65.4419 44.5058 65.4499 44.5096 65.4539V65.4539Z" fill="#709921"/>
<path d="M41.2634 66.5496C40.8997 66.8843 40.069 67.0795 39.4105 67.0197L39.3876 66.9361C39.3302 66.709 39.0124 66.5496 38.7177 66.4181C39.3646 66.6492 40.5858 66.6532 41.2634 66.5496V66.5496Z" fill="#709921"/>
<path d="M41.4739 52.0226C41.4816 52.0345 41.4816 52.0505 41.4778 52.0624C41.4433 52.3453 41.2902 52.6123 41.0681 52.7796C40.9074 52.8991 40.716 52.9629 40.5207 52.9709C40.4786 52.7597 40.4212 52.5485 40.337 52.3254C40.7083 52.3373 41.0796 52.2338 41.3897 52.0226C41.4165 52.0106 41.4586 51.9947 41.4739 52.0226V52.0226Z" fill="#709921"/>
<path d="M38.0784 51.7476C38.0822 52.1221 37.8869 52.4728 37.6228 52.7278C37.4888 52.8593 37.328 52.9708 37.1519 53.0386C37.0984 52.7915 37.0371 52.5086 36.9261 52.3094C37.0984 52.3054 37.2706 52.2616 37.4276 52.1899C37.6649 52.0823 37.8755 51.915 38.0784 51.7476Z" fill="#709921"/>
<path d="M35.4829 59.8798C35.7126 60.4097 35.9461 61.0591 36.7041 61.1468C36.7883 61.1548 36.861 61.1229 36.9299 61.0591C36.884 61.6966 36.8036 62.4656 36.9185 63.0553C36.126 62.2106 35.5135 61.2185 35.4829 59.8798V59.8798Z" fill="#709921"/>
<path d="M29.8359 209.956L29.8359 201.8L33 201.8L33 215.089L30.832 215.089L19.1133 206.956L19.1133 215.136L15.9375 215.136L15.9375 201.882L18.0469 201.882L29.8359 209.956ZM24.8203 177.86C26.4844 177.86 27.957 178.169 29.2383 178.786C30.5195 179.403 31.5078 180.282 32.2031 181.423C32.8906 182.556 33.2344 183.849 33.2344 185.302C33.2344 186.755 32.9023 188.044 32.2383 189.169C31.5664 190.294 30.6094 191.173 29.3672 191.806C28.125 192.431 26.6992 192.759 25.0898 192.79L24.1289 192.79C22.457 192.79 20.9844 192.485 19.7109 191.876C18.4297 191.259 17.4414 190.38 16.7461 189.239C16.0508 188.091 15.7031 186.786 15.7031 185.325C15.7031 183.88 16.0469 182.591 16.7344 181.458C17.4219 180.325 18.4023 179.446 19.6758 178.821C20.9414 178.189 22.3945 177.868 24.0352 177.86L24.8203 177.86ZM24.1055 182.044C22.4102 182.044 21.125 182.329 20.25 182.9C19.3672 183.462 18.9258 184.271 18.9258 185.325C18.9258 187.388 20.4727 188.478 23.5664 188.595L24.8203 188.607C26.4922 188.607 27.7773 188.329 28.6758 187.775C29.5742 187.22 30.0234 186.396 30.0234 185.302C30.0234 184.263 29.582 183.462 28.6992 182.9C27.8164 182.337 26.5469 182.052 24.8906 182.044L24.1055 182.044ZM15.9375 162.417L27.8086 158.608L15.9375 154.812L15.9375 149.397L33 149.397L33 153.522L29.0156 153.522L20.8594 153.124L33 157.249L33 159.968L20.8477 164.105L29.0156 163.706L33 163.706L33 167.819L15.9375 167.819L15.9375 162.417ZM33 138.852L15.9375 138.852L15.9375 132.724C15.9375 130.528 16.3398 128.86 17.1445 127.72C17.9492 126.571 19.1172 125.997 20.6484 125.997C21.5312 125.997 22.2852 126.2 22.9102 126.606C23.5352 127.013 23.9961 127.61 24.293 128.399C24.5273 127.509 24.9648 126.825 25.6055 126.349C26.2461 125.872 27.0273 125.634 27.9492 125.634C29.6211 125.634 30.8789 126.165 31.7227 127.227C32.5586 128.282 32.9844 129.849 33 131.927L33 138.852ZM25.7461 134.739L29.8359 134.739L29.8359 132.044C29.8359 131.302 29.668 130.731 29.332 130.333C28.9883 129.935 28.5078 129.735 27.8906 129.735C26.4687 129.735 25.7539 130.442 25.7461 131.856L25.7461 134.739ZM23.0508 134.739L23.0508 132.595C23.043 131.696 22.8789 131.056 22.5586 130.673C22.2383 130.29 21.7656 130.099 21.1406 130.099C20.4219 130.099 19.9062 130.306 19.5937 130.72C19.2734 131.134 19.1133 131.802 19.1133 132.724L19.1133 134.739L23.0508 134.739ZM33 111.057L33 115.159L15.9375 115.159L15.9375 111.057L33 111.057ZM25.7695 89.6961L25.7695 96.1648L29.8359 96.1648L29.8359 88.5242L33 88.5242L33 100.278L15.9375 100.278L15.9375 88.5008L19.1133 88.5008L19.1133 96.1648L22.7109 96.1648L22.7109 89.6961L25.7695 89.6961Z" fill="white"/>
<defs>
<linearGradient id="paint0_linear" x1="24.5" y1="56.25" x2="24.5" y2="70.1399" gradientUnits="userSpaceOnUse">
<stop offset="0.004" stop-color="#00BFA5"/>
<stop offset="1" stop-color="#009E89"/>
</linearGradient>
<radialGradient id="paint1_radial" cx="0" cy="0" r="1" gradientUnits="userSpaceOnUse" gradientTransform="translate(24.8672 35.7368) scale(15.3374 15.9634)">
<stop offset="0.594" stop-color="#802828"/>
<stop offset="1" stop-color="#BD5151"/>
</radialGradient>
</defs>
</svg>
