<svg width="30" height="35" viewBox="0 0 30 35" fill="none" xmlns="http://www.w3.org/2000/svg">
<path d="M9.18621 0.0997784C9.01448 0.100876 8.84573 0.144395 8.6952 0.226406C8.2009 0.498267 8.01961 1.12838 8.29348 1.6185L9.40945 3.61803C6.7207 5.26862 4.9391 8.08815 4.9391 11.3062V11.9041C4.42266 11.3145 3.66363 10.9423 2.81555 10.9423C1.26164 10.9423 0 12.1942 0 13.7359V22.3416C0 23.8833 1.26176 25.1352 2.81555 25.1352C3.66363 25.1352 4.42266 24.7629 4.93898 24.1734V25.3788C4.93898 27.0041 6.27926 28.3338 7.91719 28.3338H8.67281V32.1621C8.67281 33.704 9.93457 34.9558 11.4884 34.9558C13.0421 34.9558 14.3038 33.7038 14.3038 32.1621V28.3338H15.6111V32.1621C15.6111 33.704 16.8729 34.9558 18.4267 34.9558C19.9805 34.9558 21.2421 33.7038 21.2421 32.1621V28.3338H21.9979C23.6357 28.3338 24.9759 27.0041 24.9759 25.3788V24.1734C25.4923 24.7629 26.2514 25.1352 27.0995 25.1352C28.6533 25.1352 29.9149 23.8833 29.9149 22.3416V13.7359C29.9149 12.1942 28.6533 10.9423 27.0995 10.9423C26.2514 10.9423 25.4923 11.3145 24.9759 11.9041V11.4073V11.3788C24.9762 11.3486 24.9759 11.3244 24.9759 11.3062C24.9759 8.08873 23.1902 5.27199 20.5024 3.62129L21.6216 1.6185C21.8953 1.12838 21.7141 0.498267 21.2198 0.226406C21.0693 0.144395 20.9006 0.100876 20.7288 0.0997784C20.3638 0.0962901 20.0055 0.28722 19.8169 0.625011L18.6466 2.72269C17.5024 2.30373 16.2574 2.07408 14.9576 2.07408C13.6589 2.07408 12.4116 2.30129 11.2683 2.71943L10.0982 0.625011C9.90938 0.28722 9.55125 0.0965226 9.18621 0.0997784Z" fill="white"/>
<path d="M2.81559 11.67C1.65614 11.67 0.733521 12.5855 0.733521 13.736V22.3417C0.733521 23.4921 1.65614 24.4076 2.81559 24.4076C3.97504 24.4076 4.89778 23.4921 4.89778 22.3417V13.736C4.89778 12.5855 3.97504 11.67 2.81559 11.67V11.67ZM27.0997 11.67C25.9401 11.67 25.0175 12.5855 25.0175 13.736V22.3417C25.0175 23.4921 25.9401 24.4076 27.0997 24.4076C28.2591 24.4076 29.1817 23.4921 29.1817 22.3417V13.736C29.1817 12.5855 28.2591 11.67 27.0997 11.67V11.67Z" fill="#A4C639"/>
<path d="M11.4883 21.4905C10.3289 21.4905 9.40613 22.4059 9.40613 23.5565V32.1621C9.40613 33.3126 10.3289 34.228 11.4883 34.228C12.6478 34.228 13.5704 33.3126 13.5704 32.1621V23.5565C13.5704 22.4059 12.6478 21.4905 11.4883 21.4905ZM18.4266 21.4905C17.2671 21.4905 16.3444 22.4059 16.3444 23.5565V32.1621C16.3444 33.3126 17.2671 34.228 18.4266 34.228C19.5861 34.228 20.5087 33.3126 20.5087 32.1621V23.5565C20.5087 22.4059 19.5861 21.4905 18.4266 21.4905Z" fill="#A4C639"/>
<path d="M9.19257 0.827555C9.14332 0.828144 9.09504 0.841191 9.0523 0.865462C8.90382 0.94709 8.85507 1.11639 8.93745 1.26407L10.4043 3.89325C7.58241 5.35023 5.67624 8.11895 5.67249 11.2966H24.2426C24.2387 8.11895 22.3327 5.35011 19.5108 3.89325L20.9775 1.26418C21.06 1.11651 21.0112 0.94709 20.8627 0.865462C20.8199 0.841177 20.7717 0.828129 20.7224 0.827555C20.6169 0.826393 20.5172 0.878718 20.461 0.979416L18.975 3.63697C17.7596 3.10209 16.3962 2.80174 14.9575 2.80174C13.5188 2.80174 12.1555 3.10197 10.94 3.63697L9.45402 0.979416C9.42867 0.932766 9.39089 0.893927 9.3448 0.867144C9.29871 0.840361 9.24609 0.826666 9.19269 0.827555H9.19257ZM5.67249 12.0243V25.379C5.67186 25.6716 5.72949 25.9615 5.84207 26.232C5.95466 26.5025 6.11998 26.7483 6.32855 26.9553C6.53712 27.1622 6.78483 27.3262 7.05746 27.4379C7.33009 27.5496 7.62226 27.6068 7.91722 27.6062H21.9979C22.2928 27.6068 22.585 27.5496 22.8577 27.4379C23.1303 27.3262 23.378 27.1622 23.5866 26.9552C23.7952 26.7483 23.9605 26.5025 24.0731 26.232C24.1856 25.9614 24.2433 25.6715 24.2426 25.3788V12.0244H5.67249V12.0243Z" fill="#A4C639"/>
<path d="M10.6721 6.38647C10.2482 6.38647 9.89722 6.73461 9.89722 7.15519C9.89722 7.57589 10.2482 7.92403 10.6721 7.92403C11.096 7.92403 11.4469 7.57589 11.4469 7.15519C11.4469 6.73461 11.096 6.38647 10.6721 6.38647ZM19.2429 6.38647C18.8189 6.38647 18.4681 6.73461 18.4681 7.15519C18.4681 7.57589 18.8189 7.92403 19.2429 7.92403C19.6668 7.92403 20.0178 7.57589 20.0178 7.15519C20.0178 6.73461 19.6668 6.38647 19.2429 6.38647Z" fill="white"/>
</svg>
