<svg width="42" height="51" viewBox="0 0 42 51" fill="none" xmlns="http://www.w3.org/2000/svg">
<path d="M41 50.5H2.5L1 30.5L13 37L21 40.5L31 37L41 29V50.5Z" fill="#B1CC33" stroke="black"/>
<path d="M22.358 28.317C27.8808 28.317 32.358 23.8399 32.358 18.317C32.358 12.7942 27.8808 8.31702 22.358 8.31702C16.8351 8.31702 12.358 12.7942 12.358 18.317C12.358 23.8399 16.8351 28.317 22.358 28.317Z" fill="#E67A94"/>
<path d="M21.177 7.17499C15.301 7.70299 10.661 13.815 10.661 21.295C10.661 29.123 15.738 35.469 22 35.469C28.262 35.469 33.339 29.123 33.339 21.296C33.3393 19.5691 33.0804 17.852 32.571 16.202C31.2225 16.4092 29.8457 16.336 28.5267 15.9869C27.2078 15.6377 25.9751 15.0202 24.9057 14.173C23.8362 13.3257 22.9531 12.2669 22.3116 11.0628C21.67 9.85871 21.2838 8.53517 21.177 7.17499V7.17499Z" fill="#B1CC33"/>
<path d="M40.938 50.927C40.938 50.927 42.938 38.324 30.938 38.324C27.746 40.452 25.011 41.923 21.938 41.916H22.062C18.989 41.923 16.254 40.452 13.062 38.324C1.06201 38.324 3.06201 50.927 3.06201 50.927" fill="#B1CC33"/>
<path d="M32.354 38.294L31.447 39.179C30.1913 41.5411 28.3506 43.5415 26.101 44.989L24.098 50.734L22.098 46.149C18.762 46.169 15.425 43.866 12.75 39.179L12.2 38.268C1.26998 38.945 3.16098 50.955 3.16098 50.955L6.31398 50.948L8.39798 46.166L9.92698 50.976L41.107 50.926" fill="#D0CFCE"/>
<path d="M18 28.317C18 28.317 26 25.207 26 28.317C26 34.559 18 28.317 18 28.317Z" fill="#FCEA2B"/>
<path d="M28.508 42.743C34.914 44.404 35.041 47.777 35.642 50.927H40.754C40.754 50.927 42.647 39.023 31.704 38.353C31.3973 38.3336 31.0807 38.324 30.754 38.324" fill="#9B9B9A"/>
<path d="M16 19.95V21.991C15.9849 22.4913 16.1482 22.9807 16.4607 23.3716C16.7733 23.7625 17.2146 24.0296 17.706 24.125C17.9904 24.1669 18.2804 24.1471 18.5565 24.0669C18.8325 23.9867 19.0881 23.8481 19.3057 23.6603C19.5234 23.4725 19.698 23.2401 19.8178 22.9788C19.9376 22.7175 19.9998 22.4335 20 22.146V19.95C20 19.9349 19.994 19.9204 19.9833 19.9097C19.9726 19.899 19.9581 19.893 19.943 19.893H16.057C16.0419 19.893 16.0274 19.899 16.0167 19.9097C16.006 19.9204 16 19.9349 16 19.95V19.95Z" fill="#5C9E31"/>
<path d="M24 19.893V22.146C24 22.6764 24.2107 23.1851 24.5858 23.5602C24.9609 23.9353 25.4696 24.146 26 24.146C26.5304 24.146 27.0391 23.9353 27.4142 23.5602C27.7893 23.1851 28 22.6764 28 22.146V19.893H24Z" fill="#5C9E31"/>
<path d="M28 19.935C28 20.3306 27.8827 20.7172 27.6629 21.0461C27.4432 21.375 27.1308 21.6314 26.7654 21.7828C26.3999 21.9341 25.9978 21.9737 25.6098 21.8966C25.2219 21.8194 24.8655 21.6289 24.5858 21.3492C24.3061 21.0695 24.1156 20.7131 24.0384 20.3252C23.9613 19.9372 24.0009 19.5351 24.1522 19.1696C24.3036 18.8042 24.56 18.4918 24.8889 18.2721C25.2178 18.0523 25.6044 17.935 26 17.935C26.5304 17.935 27.0391 18.1457 27.4142 18.5208C27.7893 18.8959 28 19.4046 28 19.935Z" fill="white"/>
<path d="M20 19.935C20 20.3306 19.8827 20.7172 19.6629 21.0461C19.4432 21.375 19.1308 21.6314 18.7654 21.7828C18.3999 21.9341 17.9978 21.9737 17.6098 21.8966C17.2219 21.8194 16.8655 21.6289 16.5858 21.3492C16.3061 21.0695 16.1156 20.7131 16.0384 20.3252C15.9613 19.9372 16.0009 19.5351 16.1522 19.1696C16.3036 18.8042 16.56 18.4918 16.8889 18.2721C17.2178 18.0523 17.6044 17.935 18 17.935C18.5304 17.935 19.0391 18.1457 19.4142 18.5208C19.7893 18.8959 20 19.4046 20 19.935Z" fill="white"/>
<path d="M30.63 10.857C31.0988 10.3955 31.6648 10.0447 32.2866 9.83012C32.9085 9.61558 33.5704 9.54276 34.224 9.617C37.895 10.003 39.004 14.087 39.004 14.087L36.018 15.807C36.992 18.337 34.173 24.892 34.173 24.892C33.667 22.615 30.63 10.857 30.63 10.857V10.857Z" fill="#3F3F3F"/>
<path d="M17.025 1.62597C21.839 -0.102027 24.773 2.19997 25.612 4.59997C25.7809 5.15398 25.8107 5.74106 25.6987 6.3093C25.5867 6.87755 25.3364 7.40945 24.97 7.85797L21.242 7.61597C8.31702 8.75397 10.684 27.5 10.684 27.5C6.46102 23.052 8.09402 15.056 8.09402 15.056L4.43402 9.76297L18.606 4.35797L17.025 1.62597Z" fill="#3F3F3F"/>
<path d="M21.177 7.17505C15.301 7.70305 10.661 13.815 10.661 21.295C10.661 29.123 15.738 35.4691 22 35.4691C28.262 35.4691 33.339 29.123 33.339 21.296C33.3393 19.5692 33.0804 17.8521 32.571 16.202C31.2225 16.4093 29.8457 16.336 28.5267 15.9869C27.2078 15.6378 25.9751 15.0203 24.9057 14.173C23.8362 13.3258 22.9531 12.267 22.3116 11.0629C21.67 9.85877 21.2838 8.53523 21.177 7.17505V7.17505Z" stroke="black" stroke-width="2" stroke-linecap="round" stroke-linejoin="round"/>
<path d="M31.384 15.2821C31.4512 14.8207 31.3553 14.3504 31.1126 13.9524C30.8699 13.5544 30.4958 13.2536 30.055 13.1021C30.2529 12.841 30.3828 12.5348 30.433 12.2111C30.4864 11.8568 30.4434 11.4947 30.3084 11.1629C30.1734 10.831 29.9514 10.5417 29.6659 10.3254C29.3803 10.109 29.0418 9.97362 28.6858 9.93344C28.3298 9.89327 27.9696 9.94978 27.643 10.0971C27.622 9.71373 27.4906 9.34464 27.2648 9.03421C27.0389 8.72378 26.7281 8.48522 26.3699 8.34725C26.0117 8.20927 25.6212 8.17776 25.2454 8.25649C24.8697 8.33523 24.5247 8.52086 24.252 8.79105C23.9479 8.36009 23.4853 8.06732 22.9656 7.97697C22.446 7.88661 21.9117 8.00603 21.48 8.30905" stroke="black" stroke-width="2" stroke-linecap="round" stroke-linejoin="round"/>
<path d="M21.177 7.17505C21.2043 7.49505 21.2467 7.81038 21.304 8.12105C21.7129 10.3518 22.8679 12.3772 24.5797 13.8649C26.2914 15.3526 28.4581 16.2141 30.724 16.3081C30.8607 16.3141 30.9973 16.317 31.134 16.317C31.6151 16.3133 32.0954 16.2748 32.571 16.202" stroke="black" stroke-width="2" stroke-linecap="round" stroke-linejoin="round"/>
<path d="M18 28.317C18 28.317 26 25.207 26 28.317C26 34.559 18 28.317 18 28.317Z" stroke="black" stroke-width="2" stroke-linecap="round" stroke-linejoin="round"/>
<path d="M25.433 30.033H21.134" stroke="black" stroke-width="2" stroke-linecap="round" stroke-linejoin="round"/>
<path d="M22.944 30.033V27.108" stroke="black" stroke-width="1.5" stroke-linecap="round" stroke-linejoin="round"/>
<path d="M12.652 38.943C15.326 43.63 18.663 45.933 22 45.913L24 49.93L26.003 44.752C28.2522 43.3043 30.0925 41.3039 31.348 38.942" stroke="black" stroke-width="2" stroke-linecap="round" stroke-linejoin="round"/>
<path d="M29.55 47.2581L28.794 49.9211" stroke="black" stroke-width="2" stroke-linecap="round" stroke-linejoin="round"/>
<path d="M6.216 49.889L8.3 46.326L9.828 49.889" stroke="black" stroke-width="2" stroke-linecap="round" stroke-linejoin="round"/>
<path d="M41 50.9351C40.7348 50.9351 40.4804 50.8297 40.2929 50.6422C40.1054 50.4546 40 50.2003 40 49.9351V46.9351C40 42.4831 35.504 39.1251 31.348 38.9431C25.143 43.9551 18.857 43.9551 12.652 38.9431C8.496 39.1241 4 42.4831 4 46.9351V49.9351C4 50.2003 3.89464 50.4546 3.70711 50.6422C3.51957 50.8297 3.26522 50.9351 3 50.9351C2.73478 50.9351 2.48043 50.8297 2.29289 50.6422C2.10536 50.4546 2 50.2003 2 49.9351V46.9351C2 41.6101 7.14 36.9371 13 36.9351C13.2339 36.9352 13.4604 37.0173 13.64 37.1671C19.265 41.8541 24.735 41.8541 30.36 37.1671C30.5396 37.0173 30.7661 36.9352 31 36.9351C36.86 36.9371 42 41.6101 42 46.9351V49.9351C42 50.2003 41.8946 50.4546 41.7071 50.6422C41.5196 50.8297 41.2652 50.9351 41 50.9351Z" fill="black"/>
<path d="M28 19.9351C28 20.3306 27.8827 20.7173 27.6629 21.0462C27.4432 21.3751 27.1308 21.6314 26.7654 21.7828C26.3999 21.9342 25.9978 21.9738 25.6098 21.8966C25.2219 21.8195 24.8655 21.629 24.5858 21.3493C24.3061 21.0696 24.1156 20.7132 24.0384 20.3252C23.9613 19.9373 24.0009 19.5351 24.1522 19.1697C24.3036 18.8042 24.56 18.4919 24.8889 18.2721C25.2178 18.0524 25.6044 17.9351 26 17.9351C26.5304 17.9351 27.0391 18.1458 27.4142 18.5208C27.7893 18.8959 28 19.4046 28 19.9351Z" stroke="black" stroke-width="1.5" stroke-miterlimit="10"/>
<path d="M20 19.9351C20 20.3306 19.8827 20.7173 19.6629 21.0462C19.4432 21.3751 19.1308 21.6314 18.7654 21.7828C18.3999 21.9342 17.9978 21.9738 17.6098 21.8966C17.2219 21.8195 16.8655 21.629 16.5858 21.3493C16.3061 21.0696 16.1156 20.7132 16.0384 20.3252C15.9613 19.9373 16.0009 19.5351 16.1522 19.1697C16.3036 18.8042 16.56 18.4919 16.8889 18.2721C17.2178 18.0524 17.6044 17.9351 18 17.9351C18.5304 17.9351 19.0391 18.1458 19.4142 18.5208C19.7893 18.8959 20 19.4046 20 19.9351Z" stroke="black" stroke-width="1.5" stroke-miterlimit="10"/>
<path d="M34.036 10.612C37.451 10.798 38.901 12.882 39.296 14.353C36.416 13.838 35.926 15.912 35.926 15.912C35.786 22.362 34.723 28.372 31.943 28.372" stroke="black" stroke-width="2" stroke-linecap="round" stroke-linejoin="round"/>
<path d="M8.16198 13.786C6.60198 13.656 4.12798 11.041 4.56398 9.83203C9.15898 8.74203 11.562 5.37803 18.248 4.77603C18.4004 4.25485 18.4029 3.70124 18.255 3.17874C18.1071 2.65624 17.8149 2.18602 17.412 1.82203C19.048 0.910028 23.759 0.812028 24.719 5.07503" stroke="black" stroke-width="2" stroke-linecap="round" stroke-linejoin="round"/>
<path d="M11.943 28.371C7.96597 28.251 6.59097 16.498 8.14597 13.854" stroke="black" stroke-width="2" stroke-linecap="round" stroke-linejoin="round"/>
</svg>
